<svg xmlns="http://www.w3.org/2000/svg" viewBox="0 0 137.11 74.85">
  <defs>
    <style>
      .cls-1 {
        fill: #272857; /* Was: #fff; */
      }
    </style>
  </defs>
  <title>Institute of Educational Technology (iet-logo)</title>
  <desc>https://iet.open.ac.uk</desc>
  <g id="Layer_2" data-name="Layer 2">
    <g id="Layer_1-2" data-name="Layer 1">
      <g>
        <path class="cls-1" d="M0,17.43v-5.8H11.86V31h0v5.8h-8V31h0V17.43Zm3.54-13A4.26,4.26,0,0,1,4.82,1.29,4.22,4.22,0,0,1,7.93,0a4.21,4.21,0,0,1,3.12,1.29,4.28,4.28,0,0,1,1.27,3.11A4.21,4.21,0,0,1,11,7.51,4.24,4.24,0,0,1,7.93,8.79a4.22,4.22,0,0,1-3.09-1.3A4.19,4.19,0,0,1,3.54,4.41ZM24.24,16.57a7,7,0,0,1,1.45-.64A4.37,4.37,0,0,0,24.24,16.57Zm4,15a6.73,6.73,0,0,1-1.91-.28h0l0,0a7.73,7.73,0,0,1-2.25-1.13,3.9,3.9,0,0,1-.52-.45c-1.51-1.27-2.17-3-2.17-5.86,0-3.59.58-6,2.87-7.3a4.37,4.37,0,0,1,1.45-.64h0a6.38,6.38,0,0,1,1.45-.16,4.84,4.84,0,0,1,3.74,1.49,6.39,6.39,0,0,1,1.65,3.59H24.43a20.43,20.43,0,0,0-.19,3c0,.51,0,1,.06,1.44H40.64a20.5,20.5,0,0,0-1.22-7.26A11.48,11.48,0,0,0,35,12.62a12.76,12.76,0,0,0-7.47-2.19A13.25,13.25,0,0,0,13.93,24.06a12.09,12.09,0,0,0,3.73,9.23q3.73,3.51,10.39,3.51,8.35,0,12.28-6.16l-6.25-2Q31.15,31.6,28.26,31.61Zm-1.91-.28h0l0,0Zm-.63-15.4h0Zm16.61,1.14V30.25q0,6.56,6.61,6.57A15.85,15.85,0,0,0,55,35.53V30a7.37,7.37,0,0,1-2.52.52c-.9,0-1.48-.17-1.73-.51a3.62,3.62,0,0,1-.38-2V17.43H55V11.62H42.33ZM50.37,0l-8,8.76h8Z"/>
        <g>
          <path class="cls-1" d="M2.82,47.28H4.69V55.6H2.82Z"/>
          <path class="cls-1" d="M6.49,49.5a10,10,0,0,1,1.18-.25,9.65,9.65,0,0,1,1.51-.11,3.69,3.69,0,0,1,1.34.21,2,2,0,0,1,.85.59,2.32,2.32,0,0,1,.44.91A4.86,4.86,0,0,1,11.94,52V55.6H10.15V52.25A2.42,2.42,0,0,0,9.92,51a.93.93,0,0,0-.85-.36l-.41,0-.38,0V55.6H6.49Z"/>
          <path class="cls-1" d="M15.37,54.31a1.78,1.78,0,0,0,.7-.1.37.37,0,0,0,.2-.37.45.45,0,0,0-.26-.38,5,5,0,0,0-.8-.37,8.07,8.07,0,0,1-.76-.32,2.25,2.25,0,0,1-.58-.4,1.63,1.63,0,0,1-.37-.56,2.06,2.06,0,0,1-.13-.78,1.68,1.68,0,0,1,.66-1.4,2.87,2.87,0,0,1,1.81-.52,5.77,5.77,0,0,1,1.1.1,5.18,5.18,0,0,1,.84.22l-.31,1.39a6.42,6.42,0,0,0-.68-.19,3.69,3.69,0,0,0-.82-.08q-.84,0-.84.47a.49.49,0,0,0,0,.19.41.41,0,0,0,.14.16,2.09,2.09,0,0,0,.29.17l.47.2a7.3,7.3,0,0,1,1,.43,2.29,2.29,0,0,1,.61.46,1.41,1.41,0,0,1,.31.54,2.43,2.43,0,0,1,.09.69,1.6,1.6,0,0,1-.7,1.41,3.51,3.51,0,0,1-2,.48,5.72,5.72,0,0,1-1.4-.14,5.87,5.87,0,0,1-.77-.24l.3-1.45a5.91,5.91,0,0,0,.94.28A4.59,4.59,0,0,0,15.37,54.31Z"/>
          <path class="cls-1" d="M19.32,47.71l1.79-.29v1.86h2.15v1.49H21.11V53a1.76,1.76,0,0,0,.2.9.85.85,0,0,0,.8.34,3.41,3.41,0,0,0,.59-.05,3,3,0,0,0,.56-.15l.25,1.39a5,5,0,0,1-.72.23,4.17,4.17,0,0,1-1,.1,3.2,3.2,0,0,1-1.21-.2,1.9,1.9,0,0,1-.77-.55,2,2,0,0,1-.4-.86A5.12,5.12,0,0,1,19.32,53Z"/>
          <path class="cls-1" d="M26.66,47.46a1,1,0,0,1-.32.77,1.14,1.14,0,0,1-1.5,0,1.1,1.1,0,0,1,0-1.55,1.14,1.14,0,0,1,1.5,0A1,1,0,0,1,26.66,47.46Zm-.17,8.14H24.71V49.28h1.79Z"/>
          <path class="cls-1" d="M28.11,47.71l1.79-.29v1.86H32v1.49H29.9V53a1.76,1.76,0,0,0,.2.9.85.85,0,0,0,.8.34,3.41,3.41,0,0,0,.59-.05A3,3,0,0,0,32,54l.25,1.39a5,5,0,0,1-.72.23,4.17,4.17,0,0,1-1,.1,3.2,3.2,0,0,1-1.21-.2,1.9,1.9,0,0,1-.77-.55,2,2,0,0,1-.4-.86A5.12,5.12,0,0,1,28.11,53Z"/>
          <path class="cls-1" d="M38.89,55.38a10,10,0,0,1-1.18.25,9.75,9.75,0,0,1-1.51.11,3.58,3.58,0,0,1-1.34-.22,2,2,0,0,1-.85-.61,2.35,2.35,0,0,1-.44-.93,5,5,0,0,1-.13-1.19V49.28h1.79v3.3a2.55,2.55,0,0,0,.23,1.25.91.91,0,0,0,.85.38l.41,0,.38,0V49.28h1.79Z"/>
          <path class="cls-1" d="M40.51,47.71l1.79-.29v1.86h2.15v1.49H42.3V53a1.76,1.76,0,0,0,.2.9.85.85,0,0,0,.8.34,3.41,3.41,0,0,0,.59-.05,3,3,0,0,0,.56-.15l.25,1.39a5,5,0,0,1-.72.23,4.17,4.17,0,0,1-1,.1,3.2,3.2,0,0,1-1.21-.2A1.9,1.9,0,0,1,41,55a2,2,0,0,1-.4-.86A5.12,5.12,0,0,1,40.51,53Z"/>
          <path class="cls-1" d="M45.36,52.49A3.86,3.86,0,0,1,45.61,51a3.16,3.16,0,0,1,.68-1,2.81,2.81,0,0,1,1-.64,3,3,0,0,1,1.12-.22,2.79,2.79,0,0,1,2.12.82,3.39,3.39,0,0,1,.78,2.42c0,.1,0,.22,0,.34s0,.23,0,.33H47.19a1.19,1.19,0,0,0,.52.88,2.07,2.07,0,0,0,1.22.32,5.2,5.2,0,0,0,1-.09,3.65,3.65,0,0,0,.77-.22l.24,1.45a2.45,2.45,0,0,1-.38.14,5.09,5.09,0,0,1-.53.13l-.63.09a6.19,6.19,0,0,1-.67,0,4,4,0,0,1-1.48-.25,2.88,2.88,0,0,1-1-.69,2.74,2.74,0,0,1-.61-1A4.12,4.12,0,0,1,45.36,52.49Zm4.2-.68a1.84,1.84,0,0,0-.08-.44,1.12,1.12,0,0,0-.2-.38,1.09,1.09,0,0,0-.35-.28,1.15,1.15,0,0,0-.52-.11,1.2,1.2,0,0,0-.52.1,1.06,1.06,0,0,0-.36.27,1.22,1.22,0,0,0-.22.39,2.54,2.54,0,0,0-.11.45Z"/>
          <path class="cls-1" d="M61.45,52.43a4.12,4.12,0,0,1-.22,1.36,3,3,0,0,1-.62,1.06,2.82,2.82,0,0,1-1,.68,3.49,3.49,0,0,1-2.54,0,2.8,2.8,0,0,1-1-.68,3.1,3.1,0,0,1-.64-1.06,3.92,3.92,0,0,1-.23-1.36,3.77,3.77,0,0,1,.23-1.36,3.08,3.08,0,0,1,.65-1,2.92,2.92,0,0,1,1-.67,3.17,3.17,0,0,1,1.24-.24,3.2,3.2,0,0,1,1.25.24,2.84,2.84,0,0,1,1,.67,3,3,0,0,1,.64,1A3.85,3.85,0,0,1,61.45,52.43Zm-1.82,0a2.25,2.25,0,0,0-.33-1.3,1.08,1.08,0,0,0-.94-.47,1.09,1.09,0,0,0-.95.47,2.21,2.21,0,0,0-.34,1.3,2.27,2.27,0,0,0,.34,1.31,1.09,1.09,0,0,0,.95.49,1.07,1.07,0,0,0,.94-.49A2.31,2.31,0,0,0,59.62,52.43Z"/>
          <path class="cls-1" d="M65.56,46.28a3.9,3.9,0,0,1,.92.1,4.47,4.47,0,0,1,.65.2L66.79,48a2.34,2.34,0,0,0-.52-.16,2.78,2.78,0,0,0-.52-.05,1.47,1.47,0,0,0-.55.09.83.83,0,0,0-.35.25,1,1,0,0,0-.18.37,2,2,0,0,0-.05.47v.31h2.21v1.49H64.62V55.6H62.83V48.95a2.45,2.45,0,0,1,2.74-2.66Z"/>
          <path class="cls-1" d="M70.89,55.6V47.28h5.62v1.57H72.76v1.63h3.32V52H72.76v2h4V55.6Z"/>
          <path class="cls-1" d="M83.47,55.39l-.55.14-.65.11-.7.08-.68,0a4,4,0,0,1-1.39-.23,2.79,2.79,0,0,1-1-.65,2.84,2.84,0,0,1-.64-1,4,4,0,0,1-.22-1.36,4.63,4.63,0,0,1,.19-1.39,3,3,0,0,1,.55-1,2.37,2.37,0,0,1,.88-.66,3,3,0,0,1,1.19-.23,2.82,2.82,0,0,1,.67.07,3.63,3.63,0,0,1,.59.2V46.57l1.79-.29Zm-4-3a2.19,2.19,0,0,0,.37,1.33,1.28,1.28,0,0,0,1.1.5l.44,0,.34,0V50.92a1.57,1.57,0,0,0-.44-.18,2.11,2.11,0,0,0-.55-.07Q79.42,50.66,79.42,52.39Z"/>
          <path class="cls-1" d="M90.54,55.38a10,10,0,0,1-1.18.25,9.75,9.75,0,0,1-1.51.11,3.58,3.58,0,0,1-1.34-.22,2,2,0,0,1-.85-.61,2.35,2.35,0,0,1-.44-.93,5,5,0,0,1-.13-1.19V49.28h1.79v3.3a2.55,2.55,0,0,0,.23,1.25.91.91,0,0,0,.85.38l.41,0,.38,0V49.28h1.79Z"/>
          <path class="cls-1" d="M91.92,52.44a3.73,3.73,0,0,1,.22-1.29,3.09,3.09,0,0,1,.64-1.06,3,3,0,0,1,1-.71,3.37,3.37,0,0,1,1.37-.26,4.38,4.38,0,0,1,.92.09,4.45,4.45,0,0,1,.82.26l-.37,1.43a4.61,4.61,0,0,0-.55-.17,2.9,2.9,0,0,0-.67-.07,1.42,1.42,0,0,0-1.18.49,2,2,0,0,0-.39,1.3,2.1,2.1,0,0,0,.37,1.32,1.53,1.53,0,0,0,1.28.47,4.38,4.38,0,0,0,.7-.06,3,3,0,0,0,.68-.19L97,55.44a4.24,4.24,0,0,1-.78.23,5.19,5.19,0,0,1-1,.1,3.89,3.89,0,0,1-1.49-.26,2.8,2.8,0,0,1-1-.7,2.73,2.73,0,0,1-.59-1A4.46,4.46,0,0,1,91.92,52.44Z"/>
          <path class="cls-1" d="M100.18,49.12a4.13,4.13,0,0,1,1.32.18,2.06,2.06,0,0,1,.85.52,1.9,1.9,0,0,1,.45.82,4,4,0,0,1,.13,1.07v3.72l-1.07.2a10.24,10.24,0,0,1-1.66.11,5.29,5.29,0,0,1-1.11-.11,2.41,2.41,0,0,1-.86-.35,1.62,1.62,0,0,1-.55-.64,2.22,2.22,0,0,1-.19-1,1.85,1.85,0,0,1,.22-.94,1.72,1.72,0,0,1,.59-.61,2.69,2.69,0,0,1,.85-.33,4.83,4.83,0,0,1,1-.1,5.52,5.52,0,0,1,.62,0,2.78,2.78,0,0,1,.44.08v-.17a1,1,0,0,0-.28-.73,1.33,1.33,0,0,0-1-.28,6.12,6.12,0,0,0-.9.07,3.85,3.85,0,0,0-.77.19l-.23-1.44.39-.1.51-.1.58-.07C99.77,49.13,100,49.12,100.18,49.12Zm.14,5.23h.5l.38,0V52.94l-.32,0-.4,0a3.62,3.62,0,0,0-.47,0,1.26,1.26,0,0,0-.39.11.66.66,0,0,0-.26.23.63.63,0,0,0-.1.36.61.61,0,0,0,.28.58A1.56,1.56,0,0,0,100.33,54.35Z"/>
          <path class="cls-1" d="M104.49,47.71l1.79-.29v1.86h2.15v1.49h-2.15V53a1.76,1.76,0,0,0,.2.9.85.85,0,0,0,.8.34,3.41,3.41,0,0,0,.59-.05,3,3,0,0,0,.56-.15l.25,1.39a5,5,0,0,1-.72.23,4.17,4.17,0,0,1-1,.1,3.2,3.2,0,0,1-1.21-.2A1.9,1.9,0,0,1,105,55a2,2,0,0,1-.4-.86,5.12,5.12,0,0,1-.11-1.12Z"/>
          <path class="cls-1" d="M111.84,47.46a1,1,0,0,1-.32.77,1.14,1.14,0,0,1-1.5,0,1.1,1.1,0,0,1,0-1.55,1.14,1.14,0,0,1,1.5,0A1,1,0,0,1,111.84,47.46Zm-.17,8.14h-1.79V49.28h1.79Z"/>
          <path class="cls-1" d="M119.25,52.43a4.12,4.12,0,0,1-.22,1.36,3,3,0,0,1-.62,1.06,2.82,2.82,0,0,1-1,.68,3.49,3.49,0,0,1-2.54,0,2.8,2.8,0,0,1-1-.68,3.1,3.1,0,0,1-.64-1.06,3.92,3.92,0,0,1-.23-1.36,3.77,3.77,0,0,1,.23-1.36,3.08,3.08,0,0,1,.65-1,2.92,2.92,0,0,1,1-.67,3.17,3.17,0,0,1,1.24-.24,3.2,3.2,0,0,1,1.25.24,2.84,2.84,0,0,1,1,.67,3,3,0,0,1,.64,1A3.85,3.85,0,0,1,119.25,52.43Zm-1.82,0a2.25,2.25,0,0,0-.33-1.3,1.08,1.08,0,0,0-.94-.47,1.09,1.09,0,0,0-.95.47,2.21,2.21,0,0,0-.34,1.3,2.27,2.27,0,0,0,.34,1.31,1.09,1.09,0,0,0,.95.49,1.07,1.07,0,0,0,.94-.49A2.31,2.31,0,0,0,117.43,52.43Z"/>
          <path class="cls-1" d="M120.63,49.5a10,10,0,0,1,1.18-.25,9.65,9.65,0,0,1,1.51-.11,3.69,3.69,0,0,1,1.34.21,2,2,0,0,1,.85.59,2.32,2.32,0,0,1,.44.91,4.86,4.86,0,0,1,.13,1.18V55.6h-1.79V52.25a2.42,2.42,0,0,0-.23-1.22.93.93,0,0,0-.85-.36l-.41,0-.38,0V55.6h-1.79Z"/>
          <path class="cls-1" d="M130,49.12a4.13,4.13,0,0,1,1.32.18,2.06,2.06,0,0,1,.85.52,1.9,1.9,0,0,1,.45.82,4,4,0,0,1,.13,1.07v3.72l-1.07.2a10.24,10.24,0,0,1-1.66.11,5.29,5.29,0,0,1-1.11-.11,2.41,2.41,0,0,1-.86-.35,1.62,1.62,0,0,1-.55-.64,2.22,2.22,0,0,1-.19-1,1.85,1.85,0,0,1,.22-.94,1.72,1.72,0,0,1,.59-.61,2.69,2.69,0,0,1,.85-.33,4.83,4.83,0,0,1,1-.1,5.52,5.52,0,0,1,.62,0,2.78,2.78,0,0,1,.44.08v-.17a1,1,0,0,0-.28-.73,1.33,1.33,0,0,0-1-.28,6.12,6.12,0,0,0-.9.07,3.85,3.85,0,0,0-.77.19l-.23-1.44.39-.1.51-.1.58-.07C129.55,49.13,129.76,49.12,130,49.12Zm.14,5.23h.5l.38,0V52.94l-.32,0-.4,0a3.62,3.62,0,0,0-.47,0,1.26,1.26,0,0,0-.39.11.66.66,0,0,0-.26.23.63.63,0,0,0-.1.36.61.61,0,0,0,.28.58A1.56,1.56,0,0,0,130.11,54.35Z"/>
          <path class="cls-1" d="M136.86,55.72a4.48,4.48,0,0,1-1.27-.17,1.87,1.87,0,0,1-.77-.44,1.44,1.44,0,0,1-.38-.68,3.67,3.67,0,0,1-.1-.91V46.57l1.79-.29v6.88a2.31,2.31,0,0,0,0,.43.76.76,0,0,0,.14.32.73.73,0,0,0,.29.22,1.62,1.62,0,0,0,.52.11Z"/>
          <path class="cls-1" d="M9,64.28v1.6H6.48V72.6H4.61V65.88H2.1v-1.6Z"/>
          <path class="cls-1" d="M8.87,69.49A3.86,3.86,0,0,1,9.12,68a3.16,3.16,0,0,1,.68-1,2.81,2.81,0,0,1,1-.64,3,3,0,0,1,1.12-.22,2.79,2.79,0,0,1,2.12.82,3.39,3.39,0,0,1,.78,2.42c0,.1,0,.22,0,.34s0,.23,0,.33H10.7a1.19,1.19,0,0,0,.52.88,2.07,2.07,0,0,0,1.22.32,5.2,5.2,0,0,0,1-.09,3.65,3.65,0,0,0,.77-.22l.24,1.45a2.45,2.45,0,0,1-.38.14,5.09,5.09,0,0,1-.53.13l-.63.09a6.19,6.19,0,0,1-.67,0,4,4,0,0,1-1.48-.25,2.88,2.88,0,0,1-1-.69,2.74,2.74,0,0,1-.61-1A4.12,4.12,0,0,1,8.87,69.49Zm4.2-.68a1.84,1.84,0,0,0-.08-.44,1.12,1.12,0,0,0-.2-.38,1.09,1.09,0,0,0-.35-.28,1.15,1.15,0,0,0-.52-.11,1.2,1.2,0,0,0-.52.1A1.06,1.06,0,0,0,11,68a1.22,1.22,0,0,0-.22.39,2.54,2.54,0,0,0-.11.45Z"/>
          <path class="cls-1" d="M15.87,69.44a3.73,3.73,0,0,1,.22-1.29,3.09,3.09,0,0,1,.64-1.06,3,3,0,0,1,1-.71,3.37,3.37,0,0,1,1.37-.26,4.38,4.38,0,0,1,.92.09,4.45,4.45,0,0,1,.82.26l-.37,1.43a4.61,4.61,0,0,0-.55-.17,2.9,2.9,0,0,0-.67-.07,1.42,1.42,0,0,0-1.18.49,2,2,0,0,0-.39,1.3,2.1,2.1,0,0,0,.37,1.32,1.53,1.53,0,0,0,1.28.47,4.38,4.38,0,0,0,.7-.06,3,3,0,0,0,.68-.19L21,72.44a4.24,4.24,0,0,1-.78.23,5.19,5.19,0,0,1-1,.1,3.89,3.89,0,0,1-1.49-.26,2.8,2.8,0,0,1-1-.7,2.73,2.73,0,0,1-.59-1A4.46,4.46,0,0,1,15.87,69.44Z"/>
          <path class="cls-1" d="M22.17,72.6v-9L24,63.28v3a3.74,3.74,0,0,1,.46-.11,2.89,2.89,0,0,1,.55-.05,3.38,3.38,0,0,1,1.28.21,2,2,0,0,1,.82.59,2.32,2.32,0,0,1,.43.91A5.08,5.08,0,0,1,27.62,69V72.6H25.83V69.25A2.48,2.48,0,0,0,25.61,68a.89.89,0,0,0-.82-.36,2.27,2.27,0,0,0-.45,0L24,67.8v4.8Z"/>
          <path class="cls-1" d="M29.24,66.5a10,10,0,0,1,1.18-.25,9.65,9.65,0,0,1,1.51-.11,3.69,3.69,0,0,1,1.34.21,2,2,0,0,1,.85.59,2.32,2.32,0,0,1,.44.91A4.86,4.86,0,0,1,34.69,69V72.6H32.9V69.25A2.42,2.42,0,0,0,32.67,68a.93.93,0,0,0-.85-.36l-.41,0-.38,0V72.6H29.24Z"/>
          <path class="cls-1" d="M42.21,69.43A4.12,4.12,0,0,1,42,70.79a3,3,0,0,1-.62,1.06,2.82,2.82,0,0,1-1,.68,3.49,3.49,0,0,1-2.54,0,2.8,2.8,0,0,1-1-.68,3.1,3.1,0,0,1-.64-1.06A3.92,3.92,0,0,1,36,69.43a3.77,3.77,0,0,1,.23-1.36,3.08,3.08,0,0,1,.65-1,2.92,2.92,0,0,1,1-.67,3.17,3.17,0,0,1,1.24-.24,3.2,3.2,0,0,1,1.25.24,2.84,2.84,0,0,1,1,.67,3,3,0,0,1,.64,1A3.85,3.85,0,0,1,42.21,69.43Zm-1.82,0a2.25,2.25,0,0,0-.33-1.3,1.08,1.08,0,0,0-.94-.47,1.09,1.09,0,0,0-.95.47,2.21,2.21,0,0,0-.34,1.3,2.27,2.27,0,0,0,.34,1.31,1.09,1.09,0,0,0,.95.49,1.07,1.07,0,0,0,.94-.49A2.31,2.31,0,0,0,40.39,69.43Z"/>
          <path class="cls-1" d="M46.11,72.72a4.48,4.48,0,0,1-1.27-.17,1.87,1.87,0,0,1-.77-.44,1.44,1.44,0,0,1-.38-.68,3.67,3.67,0,0,1-.1-.91V63.57l1.79-.29v6.88a2.31,2.31,0,0,0,0,.43.76.76,0,0,0,.14.32.73.73,0,0,0,.29.22,1.62,1.62,0,0,0,.52.11Z"/>
          <path class="cls-1" d="M53.29,69.43a4.12,4.12,0,0,1-.22,1.36,3,3,0,0,1-.62,1.06,2.82,2.82,0,0,1-1,.68,3.49,3.49,0,0,1-2.54,0,2.8,2.8,0,0,1-1-.68,3.1,3.1,0,0,1-.64-1.06,3.92,3.92,0,0,1-.23-1.36,3.77,3.77,0,0,1,.23-1.36A3.08,3.08,0,0,1,48,67a2.92,2.92,0,0,1,1-.67,3.17,3.17,0,0,1,1.24-.24,3.2,3.2,0,0,1,1.25.24,2.84,2.84,0,0,1,1,.67,3,3,0,0,1,.64,1A3.85,3.85,0,0,1,53.29,69.43Zm-1.82,0a2.25,2.25,0,0,0-.33-1.3,1.08,1.08,0,0,0-.94-.47,1.09,1.09,0,0,0-.95.47,2.21,2.21,0,0,0-.34,1.3,2.27,2.27,0,0,0,.34,1.31,1.09,1.09,0,0,0,.95.49,1.07,1.07,0,0,0,.94-.49A2.31,2.31,0,0,0,51.47,69.43Z"/>
          <path class="cls-1" d="M60.12,71.8a3,3,0,0,1-.79,2.3,3.41,3.41,0,0,1-2.43.75,6.66,6.66,0,0,1-1.15-.1,7.2,7.2,0,0,1-1.07-.27L55,73a4.93,4.93,0,0,0,1.93.36A1.45,1.45,0,0,0,58,73a1.21,1.21,0,0,0,.32-.86v-.23a2.88,2.88,0,0,1-.59.2,3.16,3.16,0,0,1-.67.07,2.55,2.55,0,0,1-2-.77,3.12,3.12,0,0,1-.7-2.17A3.56,3.56,0,0,1,54.59,68a2.7,2.7,0,0,1,.63-1,2.82,2.82,0,0,1,1-.63,3.9,3.9,0,0,1,1.36-.22c.22,0,.44,0,.67,0l.68.08.64.11.55.14Zm-3.92-2.57q0,1.5,1.21,1.5a1.79,1.79,0,0,0,.52-.07,2,2,0,0,0,.41-.17V67.64l-.31,0-.42,0a1.23,1.23,0,0,0-1.06.47A1.93,1.93,0,0,0,56.19,69.24Z"/>
          <path class="cls-1" d="M67.22,66.28q-.54,1.82-1.13,3.42T64.8,72.8a7.1,7.1,0,0,1-.5.92,2.85,2.85,0,0,1-.55.62,2,2,0,0,1-.68.36,3.1,3.1,0,0,1-.88.11,3.57,3.57,0,0,1-.78-.08,3.39,3.39,0,0,1-.58-.17l.31-1.43a3,3,0,0,0,.49.13,2.72,2.72,0,0,0,.46,0,1,1,0,0,0,.74-.26,2.08,2.08,0,0,0,.44-.71q-.61-1.2-1.22-2.69a33.68,33.68,0,0,1-1.15-3.35h1.9q.12.47.28,1t.34,1.1q.18.56.37,1.09t.36,1q.16-.43.33-1t.33-1.09q.16-.56.31-1.1t.27-1Z"/>
        </g>
      </g>
    </g>
  </g>
</svg>
