<svg xmlns="http://www.w3.org/2000/svg" width="178.033" height="58" viewBox="0 0 178.033 58"><g transform="translate(0 0)"><path d="M49.389,4.38H7.395A3.431,3.431,0,0,0,3.96,7.815v30.14a24.425,24.425,0,1,0,48.85,0V7.815A3.431,3.431,0,0,0,49.375,4.38ZM21.91,33.424A11.065,11.065,0,1,1,32.975,22.359,11.066,11.066,0,0,1,21.91,33.424Z" transform="translate(-3.96 -4.38)" fill="#0e56a7"/><g transform="translate(54.375 3.26)"><path d="M46.481,28.287h4.239V10.367h5.233V6.61H41.16v3.757h5.321Z" transform="translate(-41.16 -6.61)" fill="#0e56a7"/><path d="M88.921,28.36A10.686,10.686,0,0,0,99.372,17.485a10.459,10.459,0,1,0-20.9,0A10.686,10.686,0,0,0,88.921,28.36Zm0-17.526a6.455,6.455,0,0,1,6.227,6.651,6.24,6.24,0,1,1-12.454,0A6.455,6.455,0,0,1,88.921,10.834Z" transform="translate(-23.934 -6.61)" fill="#0e56a7"/><g transform="translate(35.387 25.974)"><rect width="4.078" height="15.582" transform="translate(0.424 6.124)" fill="#0e56a7"/><path d="M67.84,24.38a2.47,2.47,0,1,0,2.47,2.47A2.477,2.477,0,0,0,67.84,24.38Z" transform="translate(-65.37 -24.38)" fill="#0e56a7"/></g><g transform="translate(94.337 25.974)"><rect width="4.078" height="15.582" transform="translate(0.424 6.124)" fill="#0e56a7"/><path d="M108.17,24.38a2.47,2.47,0,1,0,2.47,2.47A2.477,2.477,0,0,0,108.17,24.38Z" transform="translate(-105.7 -24.38)" fill="#0e56a7"/></g><path d="M101.574,32.206a1.98,1.98,0,0,1,1.257-.351,3.43,3.43,0,0,1,1.886.555A2.986,2.986,0,0,1,105.9,33.9l.1.263,3.186-1.506-.088-.219a5.81,5.81,0,0,0-2.4-2.967,7.092,7.092,0,0,0-3.844-1.052,6.959,6.959,0,0,0-2.953.6A4.954,4.954,0,0,0,97.861,30.7a4.367,4.367,0,0,0-.745,2.529,4.178,4.178,0,0,0,1.038,2.821,6.131,6.131,0,0,0,2.982,1.739l2.426.687a4.543,4.543,0,0,1,.819.322,1.625,1.625,0,0,1,.541.424.885.885,0,0,1,.175.57,1.125,1.125,0,0,1-.468.95,2.32,2.32,0,0,1-1.4.38,3.684,3.684,0,0,1-2.134-.658,4.331,4.331,0,0,1-1.506-1.856l-.1-.234L96.37,39.865l.073.219a5.992,5.992,0,0,0,2.514,3.2,7.785,7.785,0,0,0,4.268,1.169,7.348,7.348,0,0,0,3.055-.6,4.95,4.95,0,0,0,2.076-1.681,4.319,4.319,0,0,0,.76-2.5,4.062,4.062,0,0,0-1.067-2.85,6.35,6.35,0,0,0-2.938-1.71l-2.368-.7a6.514,6.514,0,0,1-.877-.336,1.5,1.5,0,0,1-.526-.409.9.9,0,0,1-.175-.555,1,1,0,0,1,.424-.862Z" transform="translate(-15.67 3.46)" fill="#0e56a7"/><path d="M64.952,15.292a5.272,5.272,0,0,0-2.061-2.061,6.03,6.03,0,0,0-3.026-.745,5.472,5.472,0,0,0-2.88.731,4.288,4.288,0,0,0-.994.877V6.61H52.06V28.272h3.947V19.341a4.072,4.072,0,0,1,.365-1.8A2.627,2.627,0,0,1,57.4,16.491a3.143,3.143,0,0,1,3,0A2.792,2.792,0,0,1,61.4,17.543a3.385,3.385,0,0,1,.365,1.637v9.092h3.947v-9.94a6.142,6.142,0,0,0-.745-3.055Z" transform="translate(-36.128 -6.61)" fill="#0e56a7"/><path d="M56.082,37.258a4.809,4.809,0,1,1-9.618,0V24.38H42.24V37.258a9.033,9.033,0,1,0,18.066,0V24.38H56.082Z" transform="translate(-40.661 1.594)" fill="#0e56a7"/><path d="M77.271,19a4.978,4.978,0,0,0,.058-.862,8.2,8.2,0,0,0-.512-2.894,7.378,7.378,0,0,0-1.462-2.383,6.69,6.69,0,0,0-2.339-1.637,7.921,7.921,0,0,0-3.172-.6,7.389,7.389,0,0,0-3.888,1.052,7.49,7.49,0,0,0-2.733,2.836A8.356,8.356,0,0,0,62.23,18.6a8.421,8.421,0,0,0,.979,4.049,7.655,7.655,0,0,0,2.763,2.909,7.872,7.872,0,0,0,4.151,1.067,8.409,8.409,0,0,0,2.894-.482,7.046,7.046,0,0,0,2.28-1.33,5.218,5.218,0,0,0,1.418-1.959l.058-.146-3.2-1.579-.073.132a3.741,3.741,0,0,1-1.316,1.345,3.842,3.842,0,0,1-2.032.5,3.966,3.966,0,0,1-2.1-.555,3.5,3.5,0,0,1-1.374-1.564,4.434,4.434,0,0,1-.336-1.184H77.066a2.121,2.121,0,0,0,.2-.819Zm-9.355-4.517a3.7,3.7,0,0,1,3.873.015,3.135,3.135,0,0,1,1.33,2.236H66.425a4.529,4.529,0,0,1,.219-.672,3.368,3.368,0,0,1,1.272-1.579Z" transform="translate(-31.432 -4.759)" fill="#0e56a7"/><path d="M120.131,19a4.978,4.978,0,0,0,.058-.862,8.2,8.2,0,0,0-.512-2.894,7.378,7.378,0,0,0-1.462-2.383,6.69,6.69,0,0,0-2.339-1.637,7.921,7.921,0,0,0-3.172-.6,7.389,7.389,0,0,0-3.888,1.052,7.49,7.49,0,0,0-2.733,2.836,8.357,8.357,0,0,0-.994,4.093,8.421,8.421,0,0,0,.979,4.049,7.655,7.655,0,0,0,2.763,2.909,7.872,7.872,0,0,0,4.151,1.067,8.409,8.409,0,0,0,2.894-.482,7.046,7.046,0,0,0,2.28-1.33,5.218,5.218,0,0,0,1.418-1.959l.058-.146-3.2-1.579-.073.132a3.741,3.741,0,0,1-1.316,1.345,3.842,3.842,0,0,1-2.032.5,3.966,3.966,0,0,1-2.1-.555,3.5,3.5,0,0,1-1.374-1.564A4.434,4.434,0,0,1,109.2,19.8h10.729a2.121,2.121,0,0,0,.2-.819Zm-9.355-4.517a3.7,3.7,0,0,1,3.873.015,3.135,3.135,0,0,1,1.33,2.236h-6.695a4.528,4.528,0,0,1,.219-.672A3.368,3.368,0,0,1,110.776,14.479Z" transform="translate(-11.644 -4.759)" fill="#0e56a7"/><path d="M93.921,36.8a4.978,4.978,0,0,0,.058-.862,8.2,8.2,0,0,0-.512-2.894,7.378,7.378,0,0,0-1.462-2.383,6.69,6.69,0,0,0-2.339-1.637,7.921,7.921,0,0,0-3.172-.6,7.389,7.389,0,0,0-3.888,1.052,7.49,7.49,0,0,0-2.733,2.836,8.891,8.891,0,0,0-.015,8.142,7.655,7.655,0,0,0,2.763,2.909,7.872,7.872,0,0,0,4.151,1.067,8.409,8.409,0,0,0,2.894-.482,7.046,7.046,0,0,0,2.28-1.33,5.218,5.218,0,0,0,1.418-1.959l.058-.146-3.2-1.579-.073.132a3.741,3.741,0,0,1-1.316,1.345,3.842,3.842,0,0,1-2.032.5,3.966,3.966,0,0,1-2.1-.555,3.5,3.5,0,0,1-1.374-1.564,4.434,4.434,0,0,1-.336-1.184H93.716a2.121,2.121,0,0,0,.2-.819Zm-9.355-4.517a3.7,3.7,0,0,1,3.873.015,3.135,3.135,0,0,1,1.33,2.236H83.075a4.528,4.528,0,0,1,.219-.672,3.368,3.368,0,0,1,1.272-1.579Z" transform="translate(-23.745 3.46)" fill="#0e56a7"/><path d="M117.172,41.923a3.126,3.126,0,0,1-1.432-.278,1.662,1.662,0,0,1-.789-.76,2.691,2.691,0,0,1-.263-1.242v-6.68h2.47V29.747h-2.47V26.02h-3.83v3.727H109.63v3.216h1.228v6.885c0,1.8.248,3.216,1.242,4.21a5.716,5.716,0,0,0,4.21,1.491,7.728,7.728,0,0,0,.965-.058c.351-.044.658-.073.921-.117h.132V41.821l-.716.073c-.175.015-.322.029-.453.029Z" transform="translate(-9.548 2.351)" fill="#0e56a7"/><path d="M84.4,28.57H79.957L76.99,37.764a3.689,3.689,0,0,0-.146.672l-.058.512-.058-.512a3.443,3.443,0,0,0-.146-.672L73.614,28.57H69.17l5.861,15.582h3.552L84.445,28.57Z" transform="translate(-28.228 3.529)" fill="#0e56a7"/><path d="M125.988,28.57l-3.157,9.194a3.689,3.689,0,0,0-.146.672l-.058.512-.058-.512a3.442,3.442,0,0,0-.146-.672L119.63,28.57h-4.02l4.034,14.4c.2.745.453,1.067.965,1.184l-2.543,6.695h4.21l8.171-22.276H126Z" transform="translate(-6.787 3.529)" fill="#0e56a7"/><path d="M119.9,11.946a1.514,1.514,0,0,0-1.593-1.1H116.01V26.431h3.947V17.339a3.385,3.385,0,0,1,.365-1.637,2.627,2.627,0,0,1,1.023-1.052,3.143,3.143,0,0,1,3,0A2.792,2.792,0,0,1,125.35,15.7a3.385,3.385,0,0,1,.365,1.637v9.092h3.947v-9.94a6.142,6.142,0,0,0-.745-3.055,5.272,5.272,0,0,0-2.061-2.061,6.03,6.03,0,0,0-3.026-.745,5.472,5.472,0,0,0-2.88.731,4.358,4.358,0,0,0-.979.8s-.029-.132-.058-.219Z" transform="translate(-6.603 -4.754)" fill="#0e56a7"/><path d="M101.979,10.63a6.52,6.52,0,0,0-4.5,1.535s-.029-.132-.058-.219a1.514,1.514,0,0,0-1.593-1.1H93.53V33.125h3.947v-8h0a5.844,5.844,0,0,0,1.272.848,7.141,7.141,0,0,0,3.07.658,7.472,7.472,0,0,0,6.738-3.947,8.577,8.577,0,0,0-.015-8.1,7.507,7.507,0,0,0-6.563-3.947Zm3.055,10.261a3.852,3.852,0,0,1-1.447,1.535,4.093,4.093,0,0,1-2.119.555,3.8,3.8,0,0,1-2.046-.555,4.028,4.028,0,0,1-1.432-1.535,4.755,4.755,0,0,1-.526-2.266,4.7,4.7,0,0,1,.526-2.251,3.764,3.764,0,0,1,1.432-1.549,3.906,3.906,0,0,1,2.046-.555,3.948,3.948,0,0,1,3.567,2.1,4.655,4.655,0,0,1,.526,2.251A4.754,4.754,0,0,1,105.033,20.891Z" transform="translate(-16.981 -4.754)" fill="#0e56a7"/><path d="M59.338,29.736a1.514,1.514,0,0,0-1.593-1.1H55.45V44.221H59.4V35.129a3.385,3.385,0,0,1,.365-1.637,2.627,2.627,0,0,1,1.023-1.052,3.143,3.143,0,0,1,3,0,2.792,2.792,0,0,1,1.009,1.052,3.385,3.385,0,0,1,.365,1.637v9.092H69.1v-9.94a6.142,6.142,0,0,0-.745-3.055A5.272,5.272,0,0,0,66.3,29.165a6.03,6.03,0,0,0-3.026-.745,5.472,5.472,0,0,0-2.88.731,4.358,4.358,0,0,0-.979.8s-.029-.132-.058-.219Z" transform="translate(-34.562 3.46)" fill="#0e56a7"/><path d="M94.017,29.959s-.029-.132-.058-.219a1.514,1.514,0,0,0-1.593-1.1H90.07V44.226h3.947V35.689h0a3.848,3.848,0,0,1,1.067-2.675,3.444,3.444,0,0,1,2.47-.95,5.35,5.35,0,0,1,1.506.175V28.585a2.8,2.8,0,0,0-1.082-.175,5.855,5.855,0,0,0-2.149.322A5.29,5.29,0,0,0,94,29.959Z" transform="translate(-18.579 3.455)" fill="#0e56a7"/></g></g></svg>
