<svg xmlns="http://www.w3.org/2000/svg" xmlns:xlink="http://www.w3.org/1999/xlink" width="178.5" height="58" viewBox="0 0 178.5 58"><defs><clipPath id="a"><rect width="177.995" height="58" fill="none"/></clipPath><clipPath id="c"><rect width="178.5" height="58"/></clipPath></defs><g id="b" clip-path="url(#c)"><rect width="178.5" height="58" fill="#fff"/><g clip-path="url(#a)"><path d="M45.411,0H3.433A3.432,3.432,0,0,0,0,3.433V33.579a24.42,24.42,0,1,0,48.841,0V3.433A3.427,3.427,0,0,0,45.411,0ZM17.941,29.042A11.066,11.066,0,1,1,29.006,17.977,11.064,11.064,0,0,1,17.941,29.042" fill="#272857"/><path d="M59.679,24.94h4.235V7.022h5.242V3.27H54.366V7.022h5.313Z" fill="#272857"/><path d="M119.336,25.018a10.68,10.68,0,0,0,10.445-10.874,10.453,10.453,0,1,0-20.89,0,10.678,10.678,0,0,0,10.445,10.874m0-17.522a6.455,6.455,0,0,1,6.223,6.652,6.237,6.237,0,1,1-12.447,0A6.458,6.458,0,0,1,119.336,7.5" fill="#272857"/><rect width="4.083" height="15.58" transform="translate(90.167 35.356)" fill="#272857"/><path d="M92.21,29.237a2.475,2.475,0,1,0,2.475,2.475,2.479,2.479,0,0,0-2.475-2.475" fill="#272857"/><rect width="4.083" height="15.58" transform="translate(149.118 35.356)" fill="#272857"/><path d="M151.158,29.237a2.475,2.475,0,1,0,2.475,2.475,2.479,2.479,0,0,0-2.475-2.475" fill="#272857"/><path d="M140.258,38.925a2,2,0,0,1,1.26-.354,3.313,3.313,0,0,1,1.877.559,3.052,3.052,0,0,1,1.186,1.487l.1.26,3.193-1.5-.081-.22a5.828,5.828,0,0,0-2.4-2.966,7.13,7.13,0,0,0-3.846-1.049,7.016,7.016,0,0,0-2.958.6,4.9,4.9,0,0,0-2.043,1.685,4.427,4.427,0,0,0-.741,2.534,4.179,4.179,0,0,0,1.03,2.812,6.072,6.072,0,0,0,2.975,1.745l2.426.682a4.769,4.769,0,0,1,.815.321,1.677,1.677,0,0,1,.546.426.863.863,0,0,1,.175.561,1.107,1.107,0,0,1-.474.946,2.266,2.266,0,0,1-1.4.383,3.675,3.675,0,0,1-2.134-.666,4.465,4.465,0,0,1-1.51-1.861l-.107-.237-3.112,1.491.072.214a6.018,6.018,0,0,0,2.52,3.2A7.75,7.75,0,0,0,141.9,51.15a7.3,7.3,0,0,0,3.053-.6,4.983,4.983,0,0,0,2.069-1.682,4.323,4.323,0,0,0,.757-2.507,4.1,4.1,0,0,0-1.062-2.849,6.318,6.318,0,0,0-2.939-1.708l-2.371-.708a6.915,6.915,0,0,1-.88-.341,1.336,1.336,0,0,1-.52-.413.915.915,0,0,1-.169-.558,1.024,1.024,0,0,1,.422-.864Z" fill="#272857"/><path d="M83.184,11.939a5.3,5.3,0,0,0-2.066-2.066,6.114,6.114,0,0,0-3.02-.74,5.513,5.513,0,0,0-2.884.727,3.954,3.954,0,0,0-.991.877V3.271H70.287V24.934h3.939V16a4.11,4.11,0,0,1,.367-1.793,2.655,2.655,0,0,1,1.017-1.055,3.167,3.167,0,0,1,3,0,2.723,2.723,0,0,1,1,1.056,3.429,3.429,0,0,1,.367,1.637V24.93h3.939V14.985A6.154,6.154,0,0,0,83.184,11.939Z" fill="#272857"/><path d="M69.773,42.118a4.807,4.807,0,1,1-9.614,0V29.237H55.931V42.118a9.035,9.035,0,0,0,18.071,0V29.237H69.773Z" fill="#272857"/><path d="M100.2,17.5a5.312,5.312,0,0,0,.058-.857,8.15,8.15,0,0,0-.507-2.887,7.385,7.385,0,0,0-1.468-2.387A6.794,6.794,0,0,0,95.944,9.73a7.978,7.978,0,0,0-3.173-.594,7.4,7.4,0,0,0-3.881,1.046,7.582,7.582,0,0,0-2.738,2.835,8.274,8.274,0,0,0-1,4.1,8.256,8.256,0,0,0,.987,4.053,7.486,7.486,0,0,0,2.767,2.907,7.9,7.9,0,0,0,4.144,1.072,8.461,8.461,0,0,0,2.888-.478,7.086,7.086,0,0,0,2.273-1.328,5.272,5.272,0,0,0,1.423-1.965l.058-.143-3.205-1.572-.078.137A3.625,3.625,0,0,1,95.1,21.147a3.885,3.885,0,0,1-2.027.5,4.013,4.013,0,0,1-2.111-.556,3.481,3.481,0,0,1-1.371-1.568,4.275,4.275,0,0,1-.334-1.189H99.984a2.3,2.3,0,0,0,.208-.825Zm-9.351-4.514a3.519,3.519,0,0,1,1.926-.539A3.413,3.413,0,0,1,94.707,13a3.093,3.093,0,0,1,1.153,1.5,3.475,3.475,0,0,1,.182.744H89.354a4.092,4.092,0,0,1,.215-.669,3.355,3.355,0,0,1,1.276-1.582Z" fill="#272857"/><path d="M162.841,17.5a5.312,5.312,0,0,0,.058-.857,8.149,8.149,0,0,0-.507-2.887,7.385,7.385,0,0,0-1.468-2.387,6.794,6.794,0,0,0-2.335-1.641,7.978,7.978,0,0,0-3.173-.594,7.4,7.4,0,0,0-3.881,1.046,7.582,7.582,0,0,0-2.738,2.835,8.274,8.274,0,0,0-1,4.1,8.256,8.256,0,0,0,.987,4.053,7.486,7.486,0,0,0,2.767,2.907,7.9,7.9,0,0,0,4.144,1.072,8.461,8.461,0,0,0,2.888-.478,7.085,7.085,0,0,0,2.273-1.328,5.272,5.272,0,0,0,1.423-1.965l.058-.143-3.205-1.572-.078.137a3.625,3.625,0,0,1-1.309,1.348,3.885,3.885,0,0,1-2.027.5,4.013,4.013,0,0,1-2.111-.556,3.481,3.481,0,0,1-1.371-1.568,4.276,4.276,0,0,1-.334-1.189h10.727a2.3,2.3,0,0,0,.208-.825Zm-9.351-4.514a3.519,3.519,0,0,1,1.926-.539,3.413,3.413,0,0,1,1.936.552,3.093,3.093,0,0,1,1.153,1.5,3.475,3.475,0,0,1,.182.744H152a4.092,4.092,0,0,1,.215-.669,3.355,3.355,0,0,1,1.276-1.582Z" fill="#272857"/><path d="M124.526,43.509a5.33,5.33,0,0,0,.058-.858,8.15,8.15,0,0,0-.507-2.887,7.385,7.385,0,0,0-1.468-2.387,6.794,6.794,0,0,0-2.335-1.641,7.978,7.978,0,0,0-3.173-.594,7.4,7.4,0,0,0-3.881,1.046,7.582,7.582,0,0,0-2.738,2.835,8.858,8.858,0,0,0-.013,8.152,7.486,7.486,0,0,0,2.767,2.907,7.9,7.9,0,0,0,4.144,1.072,8.461,8.461,0,0,0,2.888-.478,7.085,7.085,0,0,0,2.273-1.328,5.272,5.272,0,0,0,1.423-1.965l.058-.143-3.205-1.572-.078.137a3.625,3.625,0,0,1-1.309,1.348,3.885,3.885,0,0,1-2.027.5,4.013,4.013,0,0,1-2.111-.556,3.481,3.481,0,0,1-1.371-1.568,4.275,4.275,0,0,1-.334-1.189h10.727a2.3,2.3,0,0,0,.208-.825Zm-9.351-4.515a3.519,3.519,0,0,1,1.926-.539,3.413,3.413,0,0,1,1.936.552,3.093,3.093,0,0,1,1.153,1.5,3.475,3.475,0,0,1,.182.744h-6.688a4.091,4.091,0,0,1,.215-.669A3.355,3.355,0,0,1,115.175,39Z" fill="#272857"/><path d="M161.98,47.529a3.259,3.259,0,0,1-1.436-.273,1.672,1.672,0,0,1-.786-.76,2.8,2.8,0,0,1-.256-1.247V38.568h2.468V35.356H159.5V31.624h-3.829v3.732h-1.235v3.212h1.231V45.45c0,1.8.254,3.212,1.248,4.206a5.7,5.7,0,0,0,4.206,1.5,8.732,8.732,0,0,0,.964-.059q.522-.059.923-.117l.139-.019V47.425l-.711.078a4.081,4.081,0,0,1-.458.029Z" fill="#272857"/><path d="M110.521,35.356h-4.443l-2.972,9.195a3.493,3.493,0,0,0-.149.678l-.065.51-.065-.51a3.815,3.815,0,0,0-.15-.675l-2.971-9.195H95.263l5.856,15.58h3.553l5.856-15.58Z" fill="#272857"/><path d="M173.552,35.356,170.4,44.551a3.493,3.493,0,0,0-.149.678l-.065.51-.065-.51a3.9,3.9,0,0,0-.149-.675l-2.794-9.195h-4.024l4.037,14.4c.208.75.455,1.065.962,1.179l-2.54,6.694h4.212l8.172-22.274h-4.443Z" fill="#272857"/><path d="M167.641,10.452a1.51,1.51,0,0,0-1.588-1.1h-2.3V24.928H167.7V15.843a3.425,3.425,0,0,1,.367-1.636,2.651,2.651,0,0,1,1.017-1.056,3.163,3.163,0,0,1,3,0,2.7,2.7,0,0,1,1,1.055,3.421,3.421,0,0,1,.367,1.637v9.084h3.94V14.986a6.151,6.151,0,0,0-.737-3.046,5.315,5.315,0,0,0-2.066-2.066,6.1,6.1,0,0,0-3.02-.741,5.511,5.511,0,0,0-2.884.728,4.268,4.268,0,0,0-.988.809,2.2,2.2,0,0,0-.058-.221Z" fill="#272857"/><path d="M139.352,9.137a6.543,6.543,0,0,0-4.508,1.536,2.045,2.045,0,0,0-.059-.221,1.51,1.51,0,0,0-1.588-1.1h-2.3V31.625h3.94v-8l.009.007a5.725,5.725,0,0,0,1.273.835,7.08,7.08,0,0,0,3.063.662,7.553,7.553,0,0,0,3.972-1.059,7.646,7.646,0,0,0,2.761-2.887,8.268,8.268,0,0,0,1.013-4.05,8.1,8.1,0,0,0-1.029-4.053,7.514,7.514,0,0,0-6.558-3.946ZM142.408,19.4a3.86,3.86,0,0,1-1.442,1.536,4.075,4.075,0,0,1-2.121.556,3.82,3.82,0,0,1-2.053-.556,3.9,3.9,0,0,1-1.429-1.536,4.815,4.815,0,0,1-.519-2.267,4.79,4.79,0,0,1,.519-2.254,3.823,3.823,0,0,1,3.482-2.1,4.081,4.081,0,0,1,2.121.569,3.973,3.973,0,0,1,1.442,1.536,4.734,4.734,0,0,1,.52,2.254,4.816,4.816,0,0,1-.52,2.267" fill="#272857"/><path d="M79.137,36.46a1.51,1.51,0,0,0-1.588-1.1h-2.3V50.936h3.939V41.851a3.425,3.425,0,0,1,.367-1.636,2.651,2.651,0,0,1,1.017-1.056,3.163,3.163,0,0,1,3,0,2.7,2.7,0,0,1,1,1.055,3.421,3.421,0,0,1,.367,1.637v9.084h3.94V40.994a6.148,6.148,0,0,0-.737-3.046,5.315,5.315,0,0,0-2.066-2.066,6.1,6.1,0,0,0-3.02-.741,5.511,5.511,0,0,0-2.884.728,4.243,4.243,0,0,0-.988.809,2.2,2.2,0,0,0-.058-.221Z" fill="#272857"/><path d="M129.794,36.681a2.195,2.195,0,0,0-.058-.221,1.511,1.511,0,0,0-1.589-1.1h-2.3V50.936h3.94V42.391a3.791,3.791,0,0,1,1.072-2.657,3.458,3.458,0,0,1,2.468-.942,5.311,5.311,0,0,1,1.51.179V35.317a2.7,2.7,0,0,0-1.078-.179,5.929,5.929,0,0,0-2.14.315,5.274,5.274,0,0,0-1.829,1.225Z" fill="#272857"/></g></g></svg>